<?xml version="1.0" encoding="UTF-8" standalone="no"?><!DOCTYPE svg PUBLIC "-//W3C//DTD SVG 1.1//EN" "http://www.w3.org/Graphics/SVG/1.1/DTD/svg11.dtd"><svg width="100%" height="100%" viewBox="0 0 220 230" version="1.1" xmlns="http://www.w3.org/2000/svg" xmlns:xlink="http://www.w3.org/1999/xlink" xml:space="preserve" style="fill-rule:evenodd;clip-rule:evenodd;stroke-linejoin:round;stroke-miterlimit:1.41421;"><g><g id="djRt72VB"><path d="M47.958,219.458c0.23,-2.32 2.78,-9.18 7.66,-20.57c7.33,-17.08 -39.04,-50.89 -42.87,-65.18c-3.83,-14.29 27.89,-29.98 33.46,-63.09c3.72,-22.08 -8.25,-42.18 -35.9,-60.31" style="fill-opacity:0;fill-rule:nonzero;"/><path d="M12.007,8.433l0.327,0.216l0.325,0.216l0.325,0.217l0.322,0.217l0.322,0.217l0.32,0.217l0.318,0.217l0.317,0.218l0.316,0.218l0.314,0.218l0.313,0.218l0.311,0.218l0.31,0.219l0.309,0.219l0.307,0.219l0.306,0.219l0.304,0.22l0.303,0.219l0.301,0.22l0.3,0.221l0.299,0.22l0.297,0.221l0.296,0.22l0.295,0.222l0.293,0.221l0.291,0.221l0.29,0.222l0.289,0.222l0.287,0.222l0.286,0.223l0.285,0.222l0.283,0.223l0.282,0.223l0.28,0.223l0.279,0.224l0.277,0.224l0.276,0.223l0.275,0.225l0.273,0.224l0.272,0.225l0.27,0.225l0.269,0.225l0.268,0.225l0.266,0.226l0.264,0.225l0.264,0.226l0.261,0.227l0.261,0.226l0.259,0.227l0.258,0.227l0.256,0.227l0.254,0.227l0.254,0.228l0.252,0.228l0.25,0.228l0.249,0.228l0.248,0.229l0.246,0.228l0.245,0.229l0.243,0.23l0.242,0.229l0.241,0.23l0.239,0.23l0.238,0.23l0.236,0.23l0.235,0.231l0.233,0.231l0.232,0.231l0.231,0.232l0.229,0.231l0.228,0.232l0.226,0.232l0.225,0.232l0.224,0.233l0.222,0.233l0.22,0.233l0.22,0.233l0.217,0.234l0.217,0.234l0.215,0.234l0.213,0.234l0.212,0.234l0.211,0.235l0.209,0.235l0.208,0.236l0.206,0.235l0.205,0.236l0.204,0.236l0.202,0.236l0.2,0.236l0.2,0.237l0.197,0.237l0.197,0.238l0.194,0.237l0.194,0.238l0.192,0.238l0.191,0.238l0.189,0.238l0.187,0.239l0.187,0.239l0.184,0.239l0.184,0.24l0.182,0.24l0.18,0.24l0.179,0.24l0.178,0.24l0.176,0.241l0.175,0.241l0.173,0.241l0.172,0.242l0.17,0.242l0.169,0.242l0.168,0.242l0.166,0.243l0.165,0.242l0.163,0.243l0.162,0.244l0.16,0.243l0.159,0.244l0.157,0.244l0.156,0.244l0.154,0.245l0.153,0.245l0.152,0.245l0.15,0.245l0.149,0.246l0.147,0.246l0.145,0.246l0.145,0.246l0.142,0.247l0.142,0.247l0.14,0.247l0.138,0.247l0.137,0.248l0.135,0.248l0.134,0.248l0.133,0.248l0.131,0.249l0.129,0.249l0.129,0.249l0.126,0.249l0.125,0.25l0.124,0.25l0.122,0.25l0.121,0.25l0.119,0.251l0.118,0.251l0.116,0.251l0.115,0.251l0.113,0.252l0.112,0.252l0.111,0.252l0.109,0.252l0.107,0.253l0.106,0.253l0.104,0.253l0.103,0.253l0.102,0.254l0.1,0.254l0.098,0.254l0.097,0.254l0.096,0.255l0.094,0.255l0.092,0.255l0.091,0.255l0.09,0.256l0.088,0.255l0.086,0.256l0.085,0.257l0.084,0.256l0.082,0.257l0.08,0.257l0.079,0.257l0.078,0.257l0.076,0.258l0.074,0.258l0.073,0.258l0.072,0.258l0.07,0.259l0.068,0.258l0.067,0.259l0.066,0.26l0.063,0.259l0.063,0.26l0.061,0.259l0.059,0.261l0.058,0.26l0.057,0.26l0.054,0.261l0.054,0.261l0.052,0.261l0.05,0.261l0.049,0.262l0.047,0.262l0.046,0.262l0.044,0.262l0.043,0.262l0.041,0.263l0.04,0.262l0.038,0.263l0.037,0.264l0.035,0.263l0.033,0.263l0.033,0.264l0.03,0.264l0.029,0.264l0.028,0.264l0.026,0.265l0.024,0.264l0.023,0.265l0.022,0.265l0.02,0.266l0.018,0.265l0.017,0.265l0.016,0.266l0.013,0.266l0.013,0.266l0.011,0.266l0.009,0.267l0.008,0.266l0.006,0.267l0.005,0.267l0.003,0.267l0.002,0.267l0,0.268l-0.001,0.267l-0.003,0.268l-0.004,0.268l-0.006,0.268l-0.007,0.268l-0.009,0.269l-0.011,0.268l-0.012,0.269l-0.013,0.268l-0.015,0.269l-0.016,0.27l-0.018,0.269l-0.02,0.269l-0.021,0.27l-0.022,0.269l-0.024,0.27l-0.026,0.27l-0.027,0.27l-0.028,0.271l-0.03,0.27l-0.032,0.27l-0.033,0.271l-0.034,0.271l-0.036,0.271l-0.038,0.271l-0.039,0.271l-0.04,0.271l-0.042,0.272l-0.044,0.271l-0.045,0.273l-0.069,0.402l-0.072,0.402l-0.074,0.4l-0.077,0.399l-0.079,0.397l-0.081,0.396l-0.084,0.393l-0.086,0.392l-0.088,0.391l-0.091,0.389l-0.093,0.387l-0.095,0.386l-0.098,0.384l-0.099,0.382l-0.102,0.381l-0.104,0.379l-0.106,0.377l-0.108,0.376l-0.11,0.375l-0.112,0.373l-0.115,0.371l-0.116,0.369l-0.118,0.368l-0.12,0.367l-0.122,0.365l-0.124,0.363l-0.126,0.362l-0.128,0.36l-0.129,0.359l-0.132,0.357l-0.133,0.355l-0.135,0.354l-0.136,0.353l-0.138,0.351l-0.14,0.349l-0.142,0.348l-0.143,0.346l-0.145,0.345l-0.147,0.344l-0.147,0.342l-0.15,0.34l-0.151,0.339l-0.153,0.337l-0.154,0.336l-0.155,0.335l-0.157,0.333l-0.158,0.331l-0.16,0.33l-0.161,0.329l-0.162,0.327l-0.163,0.326l-0.165,0.324l-0.166,0.323l-0.168,0.322l-0.168,0.32l-0.17,0.318l-0.17,0.317l-0.172,0.316l-0.173,0.315l-0.175,0.313l-0.175,0.311l-0.176,0.311l-0.177,0.309l-0.178,0.307l-0.179,0.306l-0.18,0.305l-0.181,0.304l-0.182,0.302l-0.183,0.301l-0.184,0.299l-0.184,0.298l-0.185,0.297l-0.186,0.296l-0.187,0.294l-0.187,0.293l-0.188,0.292l-0.189,0.29l-0.19,0.289l-0.19,0.288l-0.19,0.286l-0.192,0.286l-0.191,0.284l-0.193,0.282l-0.193,0.282l-0.193,0.28l-0.194,0.279l-0.194,0.278l-0.195,0.277l-0.195,0.275l-0.195,0.274l-0.196,0.273l-0.196,0.272l-0.197,0.271l-0.196,0.269l-0.197,0.269l-0.197,0.267l-0.198,0.266l-0.197,0.264l-0.198,0.264l-0.198,0.262l-0.198,0.262l-0.199,0.261l-0.395,0.516l-0.397,0.513l-0.396,0.508l-0.396,0.503l-0.396,0.5l-0.395,0.495l-0.394,0.491l-0.393,0.487l-0.392,0.482l-0.391,0.479l-0.389,0.474l-0.387,0.47l-0.385,0.467l-0.383,0.462l-0.381,0.459l-0.754,0.905l-0.742,0.89l-0.73,0.876l-0.715,0.861l-0.352,0.425l-0.347,0.421l-0.343,0.418l-0.339,0.414l-0.333,0.411l-0.329,0.407l-0.324,0.404l-0.318,0.4l-0.313,0.397l-0.308,0.394l-0.301,0.39l-0.296,0.388l-0.145,0.191l-0.144,0.191l-0.142,0.19l-0.14,0.19l-0.139,0.188l-0.137,0.188l-0.136,0.187l-0.134,0.186l-0.132,0.185l-0.13,0.184l-0.128,0.184l-0.127,0.182l-0.125,0.182l-0.123,0.181l-0.121,0.18l-0.119,0.179l-0.118,0.178l-0.115,0.177l-0.113,0.177l-0.112,0.175l-0.109,0.175l-0.108,0.174l-0.105,0.172l-0.103,0.172l-0.101,0.171l-0.1,0.17l-0.097,0.169l-0.095,0.168l-0.092,0.167l-0.091,0.167l-0.088,0.165l-0.087,0.164l-0.084,0.163l-0.081,0.163l-0.08,0.161l-0.077,0.16l-0.075,0.159l-0.073,0.159l-0.071,0.157l-0.068,0.156l-0.066,0.155l-0.063,0.154l-0.062,0.153l-0.059,0.152l-0.056,0.151l-0.055,0.15l-0.052,0.149l-0.049,0.148l-0.048,0.146l-0.045,0.146l-0.042,0.144l-0.041,0.144l-0.038,0.142l-0.036,0.141l-0.033,0.141l-0.032,0.139l-0.029,0.138l-0.026,0.137l-0.025,0.136l-0.022,0.135l-0.02,0.134l-0.017,0.133l-0.016,0.133l-0.013,0.131l-0.011,0.13l-0.009,0.13l-0.006,0.129l-0.005,0.128l-0.002,0.128l0,0.126l0.002,0.126l0.005,0.131l0.003,0.058l0.003,0.062l0.004,0.062l0.005,0.063l0.005,0.062l0.006,0.062l0.006,0.062l0.007,0.062l0.008,0.061l0.008,0.062l0.008,0.062l0.01,0.062l0.009,0.061l0.011,0.061l0.01,0.062l0.012,0.062l0.012,0.061l0.012,0.061l0.014,0.062l0.013,0.061l0.015,0.062l0.015,0.061l0.015,0.062l0.017,0.061l0.016,0.062l0.018,0.062l0.018,0.063l0.02,0.064l0.02,0.065l0.021,0.066l0.022,0.067l0.022,0.063l0.05,0.143l0.053,0.141l0.056,0.145l0.06,0.148l0.064,0.151l0.067,0.154l0.071,0.157l0.075,0.16l0.078,0.163l0.082,0.165l0.086,0.169l0.089,0.171l0.093,0.173l0.096,0.176l0.1,0.178l0.103,0.181l0.107,0.183l0.11,0.185l0.114,0.187l0.117,0.19l0.12,0.191l0.123,0.194l0.127,0.196l0.13,0.198l0.133,0.2l0.136,0.202l0.139,0.203l0.142,0.206l0.146,0.207l0.148,0.209l0.151,0.211l0.154,0.212l0.157,0.215l0.16,0.215l0.162,0.218l0.166,0.219l0.168,0.221l0.17,0.222l0.173,0.224l0.176,0.225l0.179,0.227l0.18,0.228l0.184,0.23l0.186,0.231l0.188,0.233l0.19,0.234l0.193,0.235l0.195,0.237l0.197,0.238l0.2,0.239l0.202,0.24l0.204,0.242l0.206,0.243l0.208,0.244l0.21,0.246l0.211,0.246l0.431,0.497l0.437,0.502l0.445,0.505l0.451,0.51l0.459,0.514l0.464,0.518l0.471,0.522l0.476,0.526l0.482,0.529l0.487,0.533l0.492,0.536l0.496,0.539l0.501,0.543l0.505,0.545l1.021,1.101l1.034,1.111l2.098,2.25l1.059,1.138l1.062,1.145l0.533,0.576l0.533,0.577l0.532,0.578l0.532,0.58l0.531,0.581l0.531,0.582l0.529,0.583l0.528,0.584l0.526,0.584l0.524,0.586l0.521,0.586l0.519,0.587l0.516,0.588l0.514,0.587l0.509,0.588l0.506,0.587l0.252,0.296l0.25,0.294l0.25,0.294l0.248,0.294l0.248,0.294l0.246,0.294l0.245,0.294l0.244,0.294l0.242,0.294l0.241,0.294l0.24,0.294l0.239,0.294l0.237,0.294l0.236,0.293l0.234,0.294l0.233,0.293l0.231,0.293l0.23,0.293l0.228,0.293l0.227,0.293l0.225,0.293l0.223,0.292l0.221,0.292l0.22,0.292l0.218,0.292l0.216,0.292l0.214,0.291l0.213,0.291l0.21,0.291l0.209,0.291l0.206,0.29l0.205,0.29l0.202,0.29l0.201,0.29l0.198,0.289l0.196,0.29l0.194,0.288l0.192,0.289l0.189,0.288l0.187,0.288l0.185,0.288l0.182,0.287l0.18,0.287l0.178,0.287l0.175,0.286l0.173,0.287l0.17,0.285l0.167,0.286l0.165,0.285l0.163,0.285l0.159,0.284l0.157,0.284l0.154,0.284l0.152,0.284l0.148,0.283l0.146,0.283l0.142,0.283l0.14,0.282l0.137,0.282l0.134,0.282l0.131,0.281l0.127,0.281l0.125,0.281l0.121,0.28l0.118,0.281l0.115,0.28l0.111,0.279l0.108,0.28l0.105,0.279l0.101,0.279l0.097,0.275l0.048,0.143l0.047,0.139l0.045,0.139l0.045,0.139l0.044,0.139l0.043,0.139l0.042,0.139l0.041,0.139l0.04,0.139l0.039,0.138l0.038,0.139l0.038,0.139l0.036,0.138l0.035,0.139l0.034,0.139l0.034,0.138l0.032,0.139l0.031,0.138l0.03,0.138l0.029,0.139l0.028,0.138l0.027,0.138l0.026,0.138l0.025,0.138l0.024,0.139l0.023,0.137l0.022,0.139l0.02,0.137l0.02,0.138l0.018,0.138l0.017,0.138l0.016,0.138l0.015,0.137l0.014,0.138l0.012,0.138l0.011,0.137l0.01,0.138l0.009,0.137l0.008,0.137l0.006,0.138l0.006,0.137l0.004,0.137l0.002,0.137l0.002,0.137l0,0.137l-0.001,0.136l-0.003,0.137l-0.003,0.137l-0.006,0.136l-0.006,0.136l-0.008,0.137l-0.009,0.136l-0.01,0.136l-0.012,0.135l-0.014,0.136l-0.014,0.136l-0.016,0.135l-0.018,0.135l-0.019,0.135l-0.02,0.134l-0.022,0.135l-0.023,0.134l-0.025,0.134l-0.026,0.134l-0.028,0.134l-0.029,0.133l-0.031,0.133l-0.032,0.133l-0.034,0.132l-0.035,0.132l-0.037,0.132l-0.038,0.132l-0.04,0.131l-0.041,0.13l-0.043,0.131l-0.045,0.13l-0.046,0.129l-0.047,0.129l-0.049,0.129l-0.051,0.129l-0.052,0.127l-0.05,0.119l-0.452,1.058l-0.435,1.023l-0.422,0.997l-0.407,0.97l-0.394,0.943l-0.38,0.916l-0.367,0.889l-0.352,0.863l-0.339,0.835l-0.325,0.808l-0.311,0.781l-0.298,0.756l-0.143,0.365l-0.14,0.36l-0.136,0.354l-0.133,0.346l-0.13,0.34l-0.126,0.332l-0.123,0.326l-0.119,0.319l-0.116,0.312l-0.112,0.305l-0.109,0.298l-0.105,0.291l-0.101,0.285l-0.099,0.277l-0.094,0.27l-0.091,0.263l-0.088,0.256l-0.084,0.249l-0.081,0.241l-0.077,0.235l-0.073,0.227l-0.07,0.219l-0.066,0.213l-0.063,0.205l-0.059,0.197l-0.056,0.189l-0.051,0.182l-0.049,0.173l-0.044,0.166l-0.041,0.157l-0.037,0.149l-0.034,0.14l-0.03,0.132l-0.026,0.121l-0.023,0.112l-0.019,0.102l-0.016,0.091l-0.012,0.08l-0.009,0.067l-0.01,0.084l-4.969,-0.553l0.016,-0.139l0.022,-0.171l0.027,-0.171l0.03,-0.173l0.033,-0.176l0.036,-0.178l0.039,-0.182l0.043,-0.186l0.045,-0.191l0.049,-0.195l0.052,-0.2l0.055,-0.204l0.059,-0.211l0.061,-0.215l0.065,-0.221l0.068,-0.226l0.071,-0.232l0.074,-0.238l0.078,-0.244l0.08,-0.25l0.084,-0.255l0.088,-0.262l0.09,-0.268l0.094,-0.274l0.097,-0.28l0.1,-0.287l0.104,-0.292l0.107,-0.299l0.11,-0.305l0.114,-0.312l0.117,-0.318l0.12,-0.324l0.124,-0.331l0.126,-0.337l0.131,-0.343l0.133,-0.35l0.137,-0.356l0.14,-0.363l0.144,-0.369l0.147,-0.377l0.304,-0.77l0.317,-0.796l0.331,-0.823l0.344,-0.849l0.358,-0.875l0.371,-0.901l0.385,-0.928l0.398,-0.953l0.412,-0.98l0.425,-1.006l0.439,-1.033l0.45,-1.052l0.034,-0.081l0.03,-0.074l0.029,-0.074l0.029,-0.074l0.027,-0.074l0.027,-0.075l0.025,-0.075l0.025,-0.075l0.024,-0.076l0.023,-0.077l0.022,-0.076l0.022,-0.077l0.021,-0.077l0.019,-0.078l0.019,-0.078l0.018,-0.079l0.018,-0.079l0.016,-0.079l0.016,-0.08l0.015,-0.081l0.014,-0.081l0.013,-0.081l0.012,-0.082l0.012,-0.082l0.011,-0.083l0.01,-0.083l0.009,-0.084l0.008,-0.085l0.007,-0.085l0.007,-0.085l0.006,-0.086l0.005,-0.086l0.004,-0.087l0.003,-0.088l0.003,-0.088l0.001,-0.089l0.001,-0.089l0,-0.089l-0.001,-0.091l-0.002,-0.091l-0.003,-0.091l-0.003,-0.092l-0.004,-0.093l-0.006,-0.093l-0.006,-0.093l-0.007,-0.094l-0.007,-0.095l-0.009,-0.095l-0.01,-0.096l-0.01,-0.097l-0.011,-0.097l-0.012,-0.097l-0.013,-0.098l-0.014,-0.099l-0.015,-0.099l-0.016,-0.1l-0.016,-0.1l-0.018,-0.101l-0.018,-0.101l-0.019,-0.102l-0.02,-0.102l-0.021,-0.103l-0.022,-0.103l-0.022,-0.104l-0.024,-0.105l-0.024,-0.104l-0.026,-0.106l-0.026,-0.106l-0.027,-0.106l-0.028,-0.107l-0.029,-0.108l-0.029,-0.108l-0.031,-0.108l-0.031,-0.109l-0.033,-0.109l-0.033,-0.11l-0.034,-0.11l-0.035,-0.111l-0.036,-0.111l-0.036,-0.112l-0.038,-0.112l-0.037,-0.109l-0.081,-0.23l-0.082,-0.228l-0.087,-0.23l-0.089,-0.232l-0.093,-0.233l-0.096,-0.235l-0.1,-0.236l-0.103,-0.238l-0.106,-0.239l-0.109,-0.241l-0.113,-0.242l-0.115,-0.244l-0.119,-0.245l-0.122,-0.247l-0.126,-0.247l-0.128,-0.25l-0.131,-0.25l-0.134,-0.252l-0.138,-0.252l-0.14,-0.254l-0.143,-0.255l-0.146,-0.257l-0.149,-0.257l-0.152,-0.259l-0.154,-0.259l-0.157,-0.261l-0.16,-0.261l-0.163,-0.263l-0.165,-0.264l-0.168,-0.264l-0.171,-0.265l-0.173,-0.267l-0.175,-0.267l-0.178,-0.268l-0.181,-0.269l-0.183,-0.269l-0.185,-0.271l-0.188,-0.271l-0.189,-0.272l-0.193,-0.273l-0.194,-0.273l-0.197,-0.274l-0.198,-0.275l-0.201,-0.276l-0.203,-0.276l-0.205,-0.276l-0.208,-0.278l-0.209,-0.277l-0.211,-0.279l-0.213,-0.279l-0.214,-0.279l-0.217,-0.28l-0.219,-0.281l-0.22,-0.281l-0.222,-0.281l-0.224,-0.282l-0.225,-0.282l-0.227,-0.283l-0.229,-0.283l-0.23,-0.284l-0.232,-0.284l-0.233,-0.284l-0.235,-0.284l-0.236,-0.285l-0.237,-0.285l-0.239,-0.285l-0.24,-0.286l-0.242,-0.286l-0.242,-0.286l-0.244,-0.287l-0.245,-0.285l-0.494,-0.575l-0.498,-0.574l-0.502,-0.575l-0.505,-0.575l-0.509,-0.576l-0.512,-0.575l-0.515,-0.576l-0.518,-0.576l-0.52,-0.575l-0.522,-0.575l-0.524,-0.575l-0.525,-0.574l-0.527,-0.574l-0.528,-0.573l-0.528,-0.572l-0.528,-0.571l-1.058,-1.14l-1.055,-1.134l-2.098,-2.251l-1.037,-1.114l-1.026,-1.106l-0.509,-0.55l-0.506,-0.548l-0.502,-0.545l-0.497,-0.542l-0.494,-0.54l-0.489,-0.538l-0.484,-0.534l-0.48,-0.532l-0.474,-0.528l-0.468,-0.526l-0.463,-0.522l-0.457,-0.52l-0.45,-0.516l-0.443,-0.511l-0.22,-0.257l-0.218,-0.254l-0.215,-0.253l-0.214,-0.253l-0.213,-0.251l-0.21,-0.251l-0.208,-0.25l-0.207,-0.249l-0.204,-0.248l-0.203,-0.247l-0.2,-0.246l-0.199,-0.245l-0.196,-0.244l-0.194,-0.244l-0.192,-0.242l-0.19,-0.242l-0.188,-0.24l-0.185,-0.24l-0.183,-0.238l-0.181,-0.238l-0.179,-0.237l-0.176,-0.235l-0.174,-0.235l-0.171,-0.234l-0.169,-0.233l-0.166,-0.232l-0.164,-0.231l-0.161,-0.23l-0.159,-0.229l-0.156,-0.229l-0.153,-0.227l-0.151,-0.227l-0.148,-0.225l-0.146,-0.225l-0.142,-0.223l-0.14,-0.224l-0.137,-0.222l-0.134,-0.221l-0.131,-0.221l-0.128,-0.219l-0.126,-0.219l-0.122,-0.219l-0.119,-0.217l-0.116,-0.218l-0.113,-0.216l-0.11,-0.216l-0.107,-0.215l-0.103,-0.215l-0.1,-0.214l-0.097,-0.214l-0.093,-0.213l-0.09,-0.214l-0.086,-0.213l-0.083,-0.213l-0.079,-0.213l-0.074,-0.208l-0.038,-0.111l-0.035,-0.106l-0.034,-0.106l-0.033,-0.107l-0.032,-0.106l-0.032,-0.107l-0.03,-0.107l-0.029,-0.106l-0.028,-0.106l-0.027,-0.106l-0.026,-0.106l-0.024,-0.106l-0.024,-0.107l-0.023,-0.106l-0.022,-0.106l-0.021,-0.107l-0.02,-0.106l-0.018,-0.107l-0.018,-0.107l-0.017,-0.107l-0.016,-0.106l-0.015,-0.107l-0.014,-0.107l-0.012,-0.107l-0.012,-0.106l-0.011,-0.107l-0.01,-0.107l-0.009,-0.107l-0.008,-0.107l-0.007,-0.107l-0.006,-0.106l-0.006,-0.113l-0.007,-0.208l-0.004,-0.213l0,-0.213l0.004,-0.213l0.007,-0.213l0.011,-0.212l0.014,-0.212l0.018,-0.211l0.021,-0.212l0.025,-0.21l0.028,-0.211l0.031,-0.21l0.034,-0.209l0.038,-0.21l0.04,-0.208l0.044,-0.208l0.047,-0.208l0.049,-0.207l0.053,-0.207l0.055,-0.206l0.058,-0.206l0.061,-0.206l0.063,-0.205l0.066,-0.204l0.069,-0.205l0.071,-0.204l0.074,-0.203l0.076,-0.203l0.079,-0.203l0.081,-0.202l0.083,-0.202l0.086,-0.202l0.088,-0.202l0.09,-0.201l0.093,-0.201l0.094,-0.2l0.097,-0.201l0.099,-0.2l0.101,-0.201l0.103,-0.2l0.105,-0.2l0.107,-0.199l0.108,-0.2l0.111,-0.2l0.113,-0.199l0.114,-0.2l0.117,-0.199l0.118,-0.2l0.12,-0.2l0.122,-0.199l0.123,-0.2l0.125,-0.199l0.127,-0.2l0.129,-0.2l0.13,-0.2l0.132,-0.2l0.133,-0.201l0.135,-0.2l0.136,-0.201l0.138,-0.201l0.14,-0.201l0.141,-0.201l0.142,-0.201l0.144,-0.202l0.146,-0.202l0.146,-0.203l0.148,-0.202l0.15,-0.203l0.15,-0.203l0.152,-0.204l0.154,-0.204l0.155,-0.205l0.312,-0.408l0.318,-0.411l0.322,-0.413l0.327,-0.415l0.331,-0.416l0.335,-0.418l0.339,-0.42l0.343,-0.422l0.347,-0.425l0.35,-0.426l0.354,-0.429l0.357,-0.431l0.721,-0.868l0.732,-0.879l0.742,-0.89l0.75,-0.901l0.378,-0.454l0.379,-0.457l0.38,-0.461l0.381,-0.463l0.382,-0.466l0.384,-0.47l0.383,-0.472l0.385,-0.476l0.384,-0.479l0.385,-0.482l0.385,-0.486l0.384,-0.489l0.384,-0.493l0.384,-0.496l0.384,-0.5l0.19,-0.25l0.191,-0.252l0.191,-0.253l0.19,-0.254l0.19,-0.255l0.19,-0.255l0.189,-0.257l0.189,-0.257l0.189,-0.259l0.188,-0.259l0.188,-0.26l0.187,-0.262l0.187,-0.262l0.187,-0.263l0.186,-0.264l0.185,-0.265l0.185,-0.266l0.184,-0.267l0.184,-0.269l0.183,-0.269l0.182,-0.27l0.182,-0.271l0.181,-0.272l0.18,-0.273l0.18,-0.274l0.179,-0.275l0.178,-0.277l0.177,-0.277l0.177,-0.278l0.176,-0.279l0.175,-0.281l0.174,-0.281l0.173,-0.283l0.172,-0.283l0.171,-0.285l0.171,-0.286l0.169,-0.287l0.169,-0.288l0.167,-0.289l0.167,-0.29l0.165,-0.291l0.164,-0.292l0.163,-0.294l0.163,-0.294l0.161,-0.296l0.159,-0.297l0.159,-0.298l0.158,-0.299l0.156,-0.3l0.155,-0.302l0.154,-0.302l0.152,-0.304l0.151,-0.305l0.15,-0.306l0.149,-0.308l0.147,-0.308l0.146,-0.31l0.145,-0.311l0.143,-0.312l0.141,-0.314l0.141,-0.314l0.138,-0.316l0.138,-0.317l0.135,-0.318l0.135,-0.32l0.132,-0.321l0.131,-0.322l0.13,-0.323l0.128,-0.325l0.126,-0.326l0.125,-0.327l0.123,-0.329l0.121,-0.329l0.119,-0.331l0.118,-0.333l0.116,-0.334l0.115,-0.335l0.112,-0.336l0.111,-0.338l0.109,-0.339l0.107,-0.341l0.105,-0.341l0.104,-0.344l0.101,-0.344l0.099,-0.346l0.098,-0.348l0.096,-0.348l0.093,-0.351l0.092,-0.351l0.089,-0.353l0.088,-0.355l0.085,-0.356l0.084,-0.357l0.081,-0.359l0.079,-0.36l0.077,-0.362l0.075,-0.363l0.072,-0.365l0.071,-0.366l0.068,-0.368l0.066,-0.369l0.064,-0.372l0.04,-0.245l0.04,-0.246l0.038,-0.245l0.036,-0.245l0.035,-0.244l0.034,-0.245l0.033,-0.244l0.031,-0.244l0.03,-0.244l0.028,-0.243l0.027,-0.244l0.026,-0.243l0.024,-0.243l0.023,-0.242l0.021,-0.243l0.02,-0.242l0.019,-0.242l0.018,-0.242l0.016,-0.241l0.015,-0.241l0.013,-0.242l0.012,-0.24l0.011,-0.241l0.009,-0.241l0.008,-0.24l0.006,-0.24l0.006,-0.24l0.004,-0.239l0.002,-0.24l0.001,-0.239l0,-0.239l-0.002,-0.239l-0.003,-0.239l-0.004,-0.238l-0.005,-0.238l-0.007,-0.238l-0.009,-0.238l-0.009,-0.238l-0.011,-0.237l-0.013,-0.238l-0.014,-0.237l-0.015,-0.237l-0.016,-0.236l-0.018,-0.237l-0.019,-0.236l-0.021,-0.236l-0.022,-0.236l-0.023,-0.236l-0.024,-0.236l-0.026,-0.235l-0.028,-0.236l-0.028,-0.235l-0.03,-0.235l-0.032,-0.235l-0.032,-0.234l-0.034,-0.235l-0.036,-0.234l-0.036,-0.234l-0.039,-0.234l-0.039,-0.234l-0.041,-0.233l-0.042,-0.234l-0.044,-0.233l-0.044,-0.233l-0.047,-0.233l-0.047,-0.233l-0.049,-0.233l-0.051,-0.232l-0.051,-0.233l-0.053,-0.232l-0.055,-0.232l-0.056,-0.232l-0.057,-0.232l-0.058,-0.232l-0.06,-0.231l-0.061,-0.232l-0.063,-0.231l-0.064,-0.231l-0.065,-0.231l-0.067,-0.231l-0.068,-0.231l-0.069,-0.23l-0.071,-0.231l-0.072,-0.23l-0.074,-0.23l-0.075,-0.23l-0.076,-0.23l-0.078,-0.23l-0.079,-0.23l-0.08,-0.229l-0.082,-0.229l-0.083,-0.23l-0.085,-0.229l-0.086,-0.229l-0.087,-0.229l-0.089,-0.229l-0.09,-0.228l-0.091,-0.229l-0.093,-0.229l-0.094,-0.228l-0.096,-0.228l-0.097,-0.228l-0.098,-0.228l-0.1,-0.228l-0.101,-0.228l-0.102,-0.227l-0.104,-0.228l-0.106,-0.227l-0.106,-0.228l-0.108,-0.227l-0.11,-0.227l-0.111,-0.227l-0.112,-0.227l-0.114,-0.227l-0.115,-0.226l-0.116,-0.227l-0.118,-0.226l-0.119,-0.226l-0.121,-0.227l-0.122,-0.226l-0.124,-0.226l-0.125,-0.226l-0.126,-0.225l-0.128,-0.226l-0.129,-0.226l-0.13,-0.225l-0.132,-0.225l-0.134,-0.226l-0.134,-0.225l-0.137,-0.225l-0.137,-0.225l-0.139,-0.224l-0.141,-0.225l-0.141,-0.225l-0.144,-0.224l-0.144,-0.225l-0.146,-0.224l-0.148,-0.224l-0.149,-0.224l-0.15,-0.224l-0.152,-0.224l-0.153,-0.224l-0.155,-0.223l-0.156,-0.224l-0.157,-0.223l-0.159,-0.224l-0.161,-0.223l-0.161,-0.223l-0.163,-0.223l-0.165,-0.223l-0.166,-0.222l-0.168,-0.223l-0.169,-0.223l-0.17,-0.222l-0.172,-0.223l-0.173,-0.222l-0.174,-0.222l-0.177,-0.222l-0.177,-0.222l-0.179,-0.221l-0.18,-0.222l-0.182,-0.222l-0.183,-0.221l-0.185,-0.222l-0.186,-0.221l-0.188,-0.221l-0.189,-0.221l-0.19,-0.221l-0.192,-0.22l-0.193,-0.221l-0.195,-0.221l-0.196,-0.22l-0.198,-0.22l-0.199,-0.22l-0.201,-0.22l-0.202,-0.22l-0.203,-0.22l-0.205,-0.22l-0.206,-0.22l-0.208,-0.219l-0.209,-0.219l-0.211,-0.22l-0.212,-0.219l-0.213,-0.219l-0.215,-0.219l-0.217,-0.218l-0.218,-0.219l-0.219,-0.218l-0.221,-0.219l-0.222,-0.218l-0.224,-0.218l-0.225,-0.218l-0.226,-0.218l-0.228,-0.218l-0.23,-0.217l-0.231,-0.218l-0.232,-0.217l-0.234,-0.218l-0.235,-0.217l-0.237,-0.217l-0.238,-0.217l-0.24,-0.216l-0.241,-0.217l-0.243,-0.217l-0.244,-0.216l-0.245,-0.216l-0.247,-0.216l-0.248,-0.216l-0.25,-0.216l-0.251,-0.216l-0.253,-0.215l-0.254,-0.216l-0.256,-0.215l-0.257,-0.215l-0.259,-0.215l-0.26,-0.215l-0.261,-0.215l-0.263,-0.214l-0.264,-0.215l-0.266,-0.214l-0.267,-0.215l-0.269,-0.214l-0.27,-0.214l-0.272,-0.213l-0.273,-0.214l-0.275,-0.214l-0.276,-0.213l-0.277,-0.213l-0.279,-0.213l-0.28,-0.213l-0.282,-0.213l-0.283,-0.213l-0.285,-0.213l-0.286,-0.212l-0.288,-0.212l-0.289,-0.212l-0.291,-0.212l-0.292,-0.212l-0.293,-0.212l-0.295,-0.211l-0.297,-0.212l-0.297,-0.211l-0.3,-0.211l-0.3,-0.211l-0.303,-0.211l-0.303,-0.211l-0.305,-0.21l-0.307,-0.211l-0.308,-0.21l-0.31,-0.21l-0.31,-0.21l-0.313,-0.21l-0.314,-0.209l-0.315,-0.21l-0.317,-0.209l-0.321,-0.211l2.747,-4.178l0.326,0.214Z" style="fill:#0e98d5;"/></g><g id="bckaRkqdx"><path d="M206.528,53.188c-6.27,5.81 -32.41,12.31 -78.43,19.52c-46.01,7.2 -73.08,3.48 -81.22,-11.16" style="fill-opacity:0;fill-rule:nonzero;"/><path d="M208.216,55.032l-0.085,0.077l-0.097,0.088l-0.099,0.086l-0.101,0.086l-0.101,0.085l-0.104,0.085l-0.104,0.084l-0.107,0.084l-0.107,0.083l-0.109,0.082l-0.111,0.082l-0.112,0.082l-0.114,0.081l-0.115,0.081l-0.116,0.081l-0.118,0.08l-0.119,0.079l-0.121,0.08l-0.123,0.079l-0.124,0.079l-0.126,0.079l-0.127,0.078l-0.128,0.078l-0.131,0.078l-0.131,0.078l-0.133,0.077l-0.135,0.078l-0.137,0.077l-0.138,0.077l-0.139,0.077l-0.141,0.076l-0.143,0.077l-0.144,0.076l-0.146,0.076l-0.148,0.076l-0.149,0.076l-0.151,0.076l-0.155,0.077l-0.306,0.15l-0.317,0.151l-0.322,0.151l-0.329,0.15l-0.336,0.15l-0.343,0.15l-0.349,0.15l-0.356,0.15l-0.363,0.149l-0.369,0.15l-0.377,0.149l-0.383,0.15l-0.39,0.149l-0.396,0.149l-0.404,0.15l-0.411,0.149l-0.417,0.15l-0.424,0.149l-0.431,0.15l-0.439,0.15l-0.445,0.15l-0.452,0.15l-0.459,0.15l-0.466,0.15l-0.473,0.15l-0.48,0.15l-0.488,0.151l-0.494,0.151l-0.501,0.15l-0.508,0.151l-0.516,0.152l-0.522,0.151l-0.53,0.151l-0.536,0.152l-0.544,0.152l-0.551,0.152l-0.558,0.152l-0.565,0.152l-0.572,0.153l-0.579,0.153l-0.586,0.153l-0.594,0.153l-0.601,0.153l-0.607,0.154l-0.615,0.154l-0.622,0.154l-0.63,0.154l-0.636,0.154l-0.644,0.155l-0.65,0.155l-0.658,0.155l-0.665,0.155l-0.673,0.156l-0.679,0.156l-0.687,0.156l-0.693,0.156l-0.701,0.156l-0.709,0.157l-0.715,0.157l-0.722,0.157l-0.73,0.157l-0.737,0.158l-0.744,0.158l-0.752,0.158l-0.758,0.158l-0.766,0.159l-0.773,0.158l-0.78,0.159l-0.788,0.16l-0.794,0.159l-0.802,0.16l-0.809,0.16l-0.816,0.16l-0.824,0.16l-0.831,0.161l-0.838,0.161l-0.845,0.161l-0.852,0.162l-0.86,0.161l-0.867,0.162l-0.874,0.162l-0.881,0.163l-0.889,0.162l-0.896,0.163l-0.903,0.163l-0.91,0.164l-0.917,0.163l-0.925,0.164l-0.932,0.164l-0.939,0.165l-0.947,0.164l-0.954,0.165l-0.96,0.165l-0.969,0.166l-0.975,0.165l-0.983,0.166l-0.99,0.166l-0.997,0.167l-1.004,0.166l-1.012,0.167l-1.019,0.167l-1.026,0.168l-1.033,0.167l-1.041,0.168l-1.048,0.168l-1.055,0.169l-1.063,0.169l-1.069,0.168l-1.079,0.17l-1.08,0.167l-1.075,0.164l-1.068,0.16l-1.06,0.156l-1.055,0.152l-1.046,0.147l-0.522,0.073l-0.519,0.071l-0.518,0.07l-0.516,0.07l-0.514,0.068l-0.513,0.067l-0.51,0.067l-0.51,0.065l-0.507,0.065l-0.506,0.063l-0.504,0.062l-0.502,0.062l-0.501,0.06l-0.498,0.059l-0.498,0.059l-0.495,0.057l-0.494,0.056l-0.492,0.056l-0.49,0.054l-0.489,0.053l-0.487,0.053l-0.485,0.051l-0.484,0.05l-0.482,0.05l-0.48,0.048l-0.478,0.047l-0.477,0.047l-0.475,0.045l-0.473,0.044l-0.472,0.043l-0.47,0.043l-0.468,0.041l-0.467,0.04l-0.465,0.04l-0.463,0.038l-0.461,0.037l-0.46,0.036l-0.458,0.036l-0.457,0.034l-0.454,0.033l-0.453,0.032l-0.452,0.032l-0.449,0.03l-0.448,0.029l-0.447,0.028l-0.444,0.027l-0.443,0.027l-0.441,0.025l-0.44,0.024l-0.437,0.023l-0.436,0.022l-0.435,0.021l-0.432,0.021l-0.431,0.019l-0.43,0.018l-0.427,0.017l-0.426,0.016l-0.425,0.015l-0.422,0.014l-0.421,0.013l-0.419,0.012l-0.418,0.011l-0.416,0.01l-0.414,0.009l-0.412,0.008l-0.411,0.007l-0.409,0.006l-0.408,0.005l-0.405,0.004l-0.404,0.003l-0.403,0.002l-0.401,0.001l-0.399,0l-0.397,-0.001l-0.396,-0.002l-0.394,-0.003l-0.392,-0.005l-0.391,-0.005l-0.389,-0.006l-0.387,-0.007l-0.386,-0.008l-0.384,-0.01l-0.382,-0.01l-0.38,-0.011l-0.379,-0.013l-0.378,-0.013l-0.375,-0.014l-0.374,-0.016l-0.373,-0.016l-0.37,-0.018l-0.369,-0.018l-0.367,-0.02l-0.366,-0.02l-0.364,-0.022l-0.362,-0.022l-0.361,-0.024l-0.359,-0.025l-0.357,-0.025l-0.356,-0.027l-0.354,-0.028l-0.352,-0.028l-0.351,-0.03l-0.349,-0.031l-0.347,-0.032l-0.346,-0.033l-0.344,-0.034l-0.342,-0.035l-0.341,-0.036l-0.339,-0.037l-0.338,-0.038l-0.335,-0.039l-0.335,-0.04l-0.332,-0.042l-0.331,-0.042l-0.329,-0.043l-0.328,-0.045l-0.326,-0.045l-0.324,-0.046l-0.323,-0.048l-0.321,-0.049l-0.319,-0.049l-0.318,-0.051l-0.316,-0.052l-0.314,-0.052l-0.313,-0.054l-0.311,-0.055l-0.31,-0.056l-0.308,-0.057l-0.306,-0.058l-0.304,-0.059l-0.303,-0.061l-0.302,-0.061l-0.299,-0.062l-0.298,-0.064l-0.297,-0.064l-0.295,-0.066l-0.293,-0.067l-0.292,-0.068l-0.289,-0.068l-0.289,-0.07l-0.287,-0.071l-0.284,-0.072l-0.284,-0.074l-0.282,-0.074l-0.28,-0.075l-0.278,-0.077l-0.277,-0.078l-0.276,-0.078l-0.273,-0.08l-0.272,-0.081l-0.271,-0.082l-0.269,-0.083l-0.267,-0.084l-0.265,-0.086l-0.264,-0.086l-0.263,-0.088l-0.26,-0.089l-0.259,-0.089l-0.258,-0.091l-0.256,-0.093l-0.254,-0.093l-0.252,-0.094l-0.251,-0.096l-0.25,-0.096l-0.247,-0.098l-0.247,-0.099l-0.244,-0.1l-0.243,-0.102l-0.241,-0.102l-0.24,-0.103l-0.238,-0.105l-0.236,-0.106l-0.235,-0.107l-0.233,-0.109l-0.231,-0.109l-0.23,-0.111l-0.228,-0.111l-0.227,-0.113l-0.224,-0.115l-0.224,-0.115l-0.221,-0.117l-0.22,-0.117l-0.218,-0.119l-0.217,-0.12l-0.215,-0.122l-0.213,-0.122l-0.212,-0.124l-0.21,-0.125l-0.208,-0.126l-0.207,-0.128l-0.205,-0.128l-0.203,-0.13l-0.202,-0.131l-0.2,-0.133l-0.198,-0.133l-0.196,-0.135l-0.195,-0.136l-0.193,-0.137l-0.192,-0.139l-0.19,-0.14l-0.188,-0.141l-0.186,-0.142l-0.185,-0.143l-0.182,-0.145l-0.182,-0.146l-0.179,-0.147l-0.177,-0.149l-0.176,-0.15l-0.174,-0.151l-0.173,-0.152l-0.17,-0.153l-0.169,-0.155l-0.167,-0.156l-0.165,-0.157l-0.164,-0.159l-0.162,-0.159l-0.159,-0.162l-0.158,-0.162l-0.157,-0.163l-0.154,-0.165l-0.153,-0.166l-0.15,-0.167l-0.149,-0.168l-0.147,-0.17l-0.145,-0.171l-0.143,-0.172l-0.142,-0.173l-0.14,-0.175l-0.137,-0.175l-0.136,-0.177l-0.134,-0.178l-0.132,-0.18l-0.13,-0.18l-0.128,-0.182l-0.126,-0.183l-0.125,-0.184l-0.122,-0.185l-0.12,-0.187l-0.119,-0.187l-0.116,-0.189l-0.115,-0.19l-0.113,-0.191l-0.11,-0.192l-0.103,-0.182l4.358,-2.452l0.09,0.16l0.085,0.148l0.087,0.147l0.088,0.146l0.09,0.145l0.091,0.145l0.093,0.144l0.094,0.143l0.096,0.142l0.098,0.141l0.099,0.14l0.1,0.14l0.102,0.139l0.104,0.138l0.105,0.137l0.107,0.136l0.109,0.136l0.11,0.135l0.111,0.134l0.114,0.133l0.114,0.133l0.117,0.131l0.118,0.131l0.12,0.13l0.121,0.13l0.123,0.129l0.125,0.128l0.126,0.127l0.128,0.126l0.129,0.126l0.132,0.125l0.132,0.124l0.135,0.123l0.136,0.123l0.138,0.122l0.14,0.121l0.142,0.12l0.143,0.12l0.145,0.119l0.146,0.118l0.149,0.118l0.15,0.116l0.151,0.116l0.154,0.115l0.155,0.115l0.157,0.113l0.159,0.113l0.161,0.112l0.162,0.112l0.164,0.11l0.166,0.11l0.168,0.109l0.169,0.108l0.172,0.108l0.172,0.106l0.175,0.106l0.177,0.106l0.178,0.104l0.181,0.104l0.182,0.102l0.184,0.102l0.185,0.102l0.188,0.1l0.189,0.1l0.191,0.098l0.193,0.098l0.195,0.097l0.197,0.097l0.198,0.095l0.2,0.095l0.203,0.094l0.204,0.093l0.205,0.092l0.208,0.092l0.209,0.09l0.212,0.09l0.213,0.089l0.215,0.088l0.217,0.087l0.218,0.086l0.221,0.086l0.222,0.085l0.224,0.083l0.226,0.083l0.228,0.082l0.23,0.081l0.231,0.081l0.234,0.079l0.235,0.079l0.237,0.077l0.239,0.077l0.241,0.076l0.242,0.075l0.245,0.074l0.246,0.074l0.248,0.072l0.25,0.071l0.252,0.071l0.254,0.07l0.256,0.069l0.257,0.067l0.259,0.067l0.261,0.066l0.263,0.066l0.265,0.064l0.266,0.063l0.269,0.062l0.27,0.062l0.272,0.061l0.274,0.059l0.276,0.059l0.277,0.058l0.28,0.056l0.281,0.056l0.283,0.055l0.285,0.054l0.287,0.054l0.288,0.052l0.291,0.051l0.292,0.05l0.294,0.05l0.296,0.048l0.298,0.048l0.299,0.046l0.302,0.046l0.303,0.045l0.305,0.043l0.307,0.043l0.309,0.042l0.31,0.041l0.312,0.04l0.315,0.039l0.315,0.038l0.318,0.037l0.32,0.036l0.321,0.035l0.323,0.034l0.326,0.033l0.326,0.032l0.329,0.032l0.331,0.03l0.332,0.029l0.334,0.029l0.336,0.027l0.338,0.027l0.339,0.025l0.341,0.025l0.344,0.023l0.345,0.023l0.346,0.021l0.349,0.021l0.35,0.02l0.352,0.019l0.354,0.017l0.356,0.017l0.358,0.016l0.359,0.015l0.361,0.013l0.363,0.013l0.365,0.012l0.367,0.011l0.368,0.01l0.37,0.009l0.372,0.008l0.374,0.007l0.375,0.006l0.378,0.005l0.379,0.004l0.381,0.003l0.383,0.002l0.384,0.001l0.386,0l0.389,-0.001l0.389,-0.002l0.392,-0.002l0.393,-0.004l0.396,-0.005l0.397,-0.006l0.399,-0.007l0.4,-0.007l0.403,-0.009l0.404,-0.01l0.406,-0.011l0.407,-0.011l0.41,-0.013l0.411,-0.014l0.413,-0.015l0.415,-0.015l0.417,-0.017l0.418,-0.018l0.42,-0.018l0.422,-0.02l0.424,-0.021l0.426,-0.021l0.427,-0.023l0.429,-0.023l0.431,-0.025l0.433,-0.026l0.434,-0.026l0.436,-0.028l0.438,-0.028l0.44,-0.03l0.441,-0.03l0.444,-0.032l0.445,-0.032l0.447,-0.034l0.448,-0.035l0.451,-0.035l0.452,-0.037l0.454,-0.037l0.456,-0.039l0.457,-0.039l0.459,-0.041l0.461,-0.041l0.463,-0.042l0.465,-0.044l0.466,-0.044l0.468,-0.046l0.47,-0.046l0.472,-0.048l0.473,-0.048l0.475,-0.05l0.477,-0.05l0.479,-0.052l0.48,-0.052l0.482,-0.053l0.484,-0.055l0.486,-0.055l0.488,-0.057l0.489,-0.057l0.491,-0.059l0.493,-0.059l0.494,-0.06l0.496,-0.062l0.499,-0.062l0.5,-0.064l0.501,-0.064l0.504,-0.065l0.505,-0.067l0.507,-0.067l0.508,-0.069l0.511,-0.069l0.512,-0.07l0.513,-0.072l1.034,-0.145l1.04,-0.15l1.047,-0.154l1.055,-0.158l1.061,-0.161l1.069,-0.166l1.072,-0.169l1.065,-0.168l1.059,-0.168l1.051,-0.168l1.044,-0.167l1.036,-0.167l1.029,-0.167l1.022,-0.167l1.014,-0.166l1.008,-0.167l1,-0.165l0.992,-0.166l0.985,-0.165l0.978,-0.166l0.971,-0.164l0.963,-0.165l0.956,-0.164l0.949,-0.164l0.941,-0.164l0.934,-0.163l0.927,-0.164l0.919,-0.162l0.913,-0.163l0.904,-0.163l0.898,-0.162l0.89,-0.162l0.883,-0.161l0.875,-0.161l0.868,-0.161l0.861,-0.161l0.854,-0.161l0.846,-0.16l0.839,-0.16l0.831,-0.16l0.824,-0.159l0.817,-0.159l0.809,-0.159l0.803,-0.159l0.794,-0.158l0.788,-0.158l0.78,-0.158l0.773,-0.157l0.765,-0.157l0.758,-0.157l0.751,-0.157l0.743,-0.156l0.736,-0.156l0.729,-0.156l0.721,-0.156l0.714,-0.155l0.707,-0.155l0.699,-0.155l0.692,-0.154l0.685,-0.154l0.677,-0.154l0.669,-0.154l0.663,-0.153l0.655,-0.153l0.647,-0.152l0.64,-0.153l0.633,-0.152l0.626,-0.152l0.618,-0.151l0.61,-0.151l0.604,-0.151l0.595,-0.151l0.589,-0.15l0.581,-0.15l0.573,-0.15l0.566,-0.149l0.559,-0.149l0.551,-0.149l0.544,-0.148l0.536,-0.148l0.529,-0.148l0.522,-0.147l0.514,-0.147l0.506,-0.147l0.499,-0.146l0.492,-0.146l0.484,-0.146l0.476,-0.145l0.469,-0.145l0.462,-0.144l0.454,-0.145l0.446,-0.143l0.439,-0.144l0.431,-0.143l0.424,-0.142l0.416,-0.143l0.408,-0.141l0.401,-0.142l0.393,-0.14l0.386,-0.141l0.377,-0.14l0.371,-0.139l0.362,-0.139l0.355,-0.138l0.347,-0.138l0.339,-0.138l0.331,-0.136l0.324,-0.136l0.316,-0.136l0.308,-0.135l0.3,-0.134l0.292,-0.133l0.284,-0.133l0.276,-0.131l0.271,-0.133l0.128,-0.064l0.129,-0.064l0.127,-0.065l0.125,-0.065l0.123,-0.064l0.121,-0.064l0.119,-0.064l0.117,-0.063l0.115,-0.063l0.112,-0.063l0.111,-0.062l0.108,-0.063l0.107,-0.062l0.104,-0.061l0.103,-0.061l0.1,-0.061l0.098,-0.061l0.096,-0.06l0.094,-0.06l0.091,-0.059l0.09,-0.059l0.088,-0.058l0.085,-0.058l0.083,-0.058l0.081,-0.057l0.079,-0.056l0.077,-0.056l0.074,-0.056l0.073,-0.054l0.07,-0.055l0.068,-0.053l0.066,-0.053l0.064,-0.052l0.061,-0.052l0.06,-0.051l0.057,-0.049l0.055,-0.05l0.063,-0.058l3.377,3.688Z" style="fill:#0e98d5;"/></g><g id="a1P3gF1aeA"><path d="M49.778,179.018c2.56,1.86 19.41,-9.87 50.55,-35.2c31.14,-25.33 47.87,-50.55 50.19,-75.64" style="fill-opacity:0;fill-rule:nonzero;"/><path d="M153.007,68.413l-0.029,0.3l-0.03,0.305l-0.032,0.305l-0.033,0.305l-0.034,0.305l-0.036,0.305l-0.037,0.305l-0.038,0.306l-0.04,0.305l-0.041,0.305l-0.043,0.305l-0.044,0.305l-0.045,0.305l-0.047,0.305l-0.048,0.305l-0.049,0.305l-0.051,0.305l-0.052,0.305l-0.053,0.304l-0.055,0.305l-0.056,0.305l-0.058,0.305l-0.059,0.305l-0.06,0.305l-0.062,0.305l-0.063,0.305l-0.064,0.304l-0.066,0.305l-0.067,0.305l-0.068,0.305l-0.07,0.305l-0.071,0.304l-0.073,0.305l-0.074,0.305l-0.075,0.304l-0.077,0.305l-0.078,0.304l-0.079,0.305l-0.08,0.305l-0.083,0.304l-0.083,0.305l-0.085,0.304l-0.086,0.305l-0.087,0.304l-0.089,0.305l-0.09,0.304l-0.091,0.304l-0.093,0.305l-0.094,0.304l-0.096,0.304l-0.097,0.305l-0.098,0.304l-0.1,0.304l-0.101,0.304l-0.102,0.304l-0.104,0.305l-0.105,0.304l-0.106,0.304l-0.108,0.304l-0.109,0.304l-0.11,0.304l-0.112,0.304l-0.113,0.304l-0.114,0.304l-0.116,0.304l-0.117,0.303l-0.118,0.304l-0.12,0.304l-0.121,0.304l-0.123,0.303l-0.124,0.304l-0.125,0.304l-0.126,0.303l-0.128,0.304l-0.129,0.304l-0.131,0.303l-0.132,0.304l-0.133,0.303l-0.134,0.304l-0.136,0.303l-0.137,0.303l-0.139,0.304l-0.14,0.303l-0.141,0.303l-0.142,0.304l-0.144,0.303l-0.146,0.303l-0.146,0.303l-0.148,0.303l-0.149,0.303l-0.151,0.303l-0.152,0.304l-0.153,0.303l-0.154,0.303l-0.156,0.302l-0.158,0.303l-0.158,0.303l-0.16,0.303l-0.161,0.303l-0.163,0.303l-0.164,0.302l-0.165,0.303l-0.166,0.303l-0.168,0.302l-0.169,0.303l-0.171,0.303l-0.172,0.302l-0.173,0.303l-0.174,0.302l-0.176,0.303l-0.177,0.302l-0.179,0.303l-0.18,0.302l-0.181,0.302l-0.182,0.303l-0.184,0.302l-0.185,0.302l-0.187,0.302l-0.187,0.303l-0.189,0.302l-0.191,0.302l-0.191,0.302l-0.194,0.302l-0.194,0.302l-0.196,0.302l-0.197,0.302l-0.198,0.302l-0.2,0.302l-0.201,0.302l-0.202,0.302l-0.203,0.301l-0.205,0.302l-0.207,0.302l-0.207,0.302l-0.209,0.302l-0.21,0.301l-0.212,0.302l-0.213,0.302l-0.214,0.301l-0.215,0.302l-0.217,0.301l-0.218,0.302l-0.22,0.301l-0.221,0.302l-0.222,0.301l-0.223,0.302l-0.225,0.301l-0.226,0.302l-0.227,0.301l-0.229,0.301l-0.23,0.302l-0.231,0.301l-0.233,0.301l-0.234,0.301l-0.235,0.301l-0.236,0.302l-0.238,0.301l-0.24,0.301l-0.24,0.301l-0.242,0.301l-0.243,0.301l-0.245,0.301l-0.245,0.301l-0.247,0.301l-0.249,0.301l-0.25,0.301l-0.25,0.301l-0.253,0.301l-0.254,0.301l-0.255,0.301l-0.256,0.301l-0.257,0.3l-0.259,0.301l-0.26,0.301l-0.262,0.301l-0.263,0.3l-0.264,0.301l-0.266,0.301l-0.266,0.3l-0.268,0.301l-0.27,0.301l-0.271,0.3l-0.272,0.301l-0.273,0.3l-0.275,0.301l-0.276,0.3l-0.277,0.301l-0.278,0.3l-0.28,0.301l-0.282,0.3l-0.282,0.301l-0.284,0.3l-0.285,0.301l-0.287,0.3l-0.287,0.3l-0.289,0.301l-0.291,0.3l-0.292,0.3l-0.292,0.301l-0.295,0.3l-0.295,0.3l-0.297,0.3l-0.299,0.301l-0.299,0.3l-0.301,0.3l-0.302,0.3l-0.304,0.3l-0.305,0.301l-0.306,0.3l-0.307,0.3l-0.309,0.3l-0.31,0.3l-0.311,0.3l-0.313,0.3l-0.314,0.3l-0.315,0.3l-0.317,0.3l-0.318,0.3l-0.319,0.3l-0.321,0.3l-0.321,0.3l-0.323,0.3l-0.325,0.3l-0.326,0.3l-0.327,0.3l-0.328,0.3l-0.33,0.3l-0.331,0.3l-0.332,0.3l-0.334,0.299l-0.335,0.3l-0.336,0.3l-0.338,0.3l-0.338,0.3l-0.341,0.3l-0.341,0.299l-0.343,0.3l-0.344,0.3l-0.345,0.3l-0.347,0.299l-0.348,0.3l-0.35,0.3l-0.35,0.3l-0.352,0.299l-0.353,0.3l-0.355,0.3l-0.356,0.299l-0.357,0.3l-0.358,0.3l-0.36,0.299l-0.361,0.3l-0.363,0.3l-0.364,0.299l-0.365,0.3l-0.366,0.3l-0.367,0.299l-1.452,1.179l-1.431,1.16l-1.41,1.139l-1.389,1.12l-1.368,1.1l-1.347,1.08l-1.327,1.06l-1.306,1.04l-1.284,1.021l-1.264,1.001l-1.244,0.98l-1.222,0.961l-1.202,0.942l-1.18,0.921l-1.161,0.901l-1.138,0.882l-0.563,0.433l-0.556,0.429l-0.552,0.424l-0.546,0.418l-0.541,0.414l-0.536,0.409l-0.531,0.403l-0.525,0.399l-0.521,0.394l-0.515,0.389l-0.51,0.384l-0.505,0.379l-0.5,0.374l-0.494,0.369l-0.49,0.364l-0.484,0.36l-0.479,0.354l-0.474,0.35l-0.469,0.344l-0.463,0.34l-0.459,0.334l-0.453,0.33l-0.448,0.325l-0.443,0.32l-0.438,0.315l-0.433,0.31l-0.428,0.305l-0.422,0.301l-0.418,0.295l-0.412,0.29l-0.407,0.286l-0.402,0.281l-0.397,0.275l-0.392,0.271l-0.387,0.266l-0.382,0.261l-0.377,0.257l-0.371,0.251l-0.367,0.247l-0.362,0.241l-0.356,0.237l-0.352,0.232l-0.347,0.227l-0.341,0.222l-0.337,0.218l-0.332,0.212l-0.327,0.208l-0.322,0.203l-0.317,0.198l-0.312,0.193l-0.307,0.189l-0.303,0.184l-0.297,0.179l-0.293,0.174l-0.288,0.169l-0.284,0.165l-0.279,0.16l-0.274,0.155l-0.269,0.151l-0.265,0.145l-0.261,0.141l-0.256,0.137l-0.252,0.132l-0.248,0.127l-0.243,0.122l-0.24,0.118l-0.235,0.114l-0.231,0.109l-0.228,0.104l-0.224,0.099l-0.221,0.095l-0.217,0.091l-0.215,0.086l-0.212,0.081l-0.209,0.077l-0.202,0.071l-0.107,0.036l-0.102,0.033l-0.102,0.032l-0.102,0.031l-0.101,0.03l-0.101,0.028l-0.101,0.027l-0.101,0.026l-0.102,0.025l-0.101,0.023l-0.101,0.022l-0.102,0.021l-0.101,0.019l-0.102,0.018l-0.104,0.016l-0.103,0.014l-0.104,0.013l-0.106,0.011l-0.106,0.009l-0.108,0.007l-0.108,0.005l-0.11,0.003l-0.113,-0.001l-0.113,-0.002l-0.116,-0.006l-0.116,-0.009l-0.119,-0.012l-0.121,-0.017l-0.123,-0.02l-0.124,-0.025l-0.128,-0.03l-0.128,-0.035l-0.13,-0.041l-0.132,-0.047l-0.132,-0.053l-0.133,-0.06l-0.132,-0.066l-0.131,-0.074l-0.132,-0.082l-0.078,-0.054l2.841,-4.114l-0.017,-0.012l-0.067,-0.042l-0.065,-0.036l-0.063,-0.032l-0.061,-0.028l-0.058,-0.023l-0.055,-0.02l-0.05,-0.015l-0.046,-0.013l-0.042,-0.01l-0.037,-0.007l-0.033,-0.006l-0.029,-0.004l-0.023,-0.002l-0.019,-0.001l-0.015,-0.001l-0.01,0l-0.006,0l-0.002,0l0.003,-0.001l0.005,0l0.011,-0.001l0.013,-0.001l0.017,-0.002l0.021,-0.003l0.023,-0.004l0.028,-0.005l0.03,-0.005l0.032,-0.007l0.037,-0.008l0.039,-0.009l0.041,-0.01l0.043,-0.011l0.047,-0.013l0.05,-0.014l0.051,-0.015l0.054,-0.016l0.056,-0.017l0.059,-0.02l0.055,-0.018l0.133,-0.047l0.136,-0.05l0.144,-0.055l0.151,-0.061l0.159,-0.066l0.166,-0.071l0.174,-0.077l0.18,-0.083l0.186,-0.087l0.194,-0.094l0.2,-0.098l0.206,-0.104l0.212,-0.109l0.219,-0.115l0.225,-0.119l0.231,-0.126l0.237,-0.13l0.243,-0.135l0.249,-0.141l0.254,-0.146l0.261,-0.152l0.266,-0.156l0.272,-0.162l0.277,-0.167l0.284,-0.172l0.289,-0.177l0.294,-0.182l0.3,-0.188l0.306,-0.193l0.311,-0.198l0.317,-0.203l0.322,-0.208l0.328,-0.213l0.333,-0.218l0.339,-0.224l0.345,-0.228l0.349,-0.234l0.355,-0.239l0.361,-0.243l0.366,-0.249l0.371,-0.254l0.377,-0.259l0.382,-0.264l0.388,-0.27l0.393,-0.274l0.398,-0.279l0.404,-0.285l0.409,-0.289l0.414,-0.295l0.42,-0.299l0.425,-0.305l0.43,-0.309l0.436,-0.315l0.441,-0.32l0.447,-0.324l0.451,-0.33l0.457,-0.335l0.463,-0.34l0.468,-0.345l0.473,-0.35l0.478,-0.355l0.484,-0.36l0.488,-0.365l0.495,-0.37l0.499,-0.375l0.505,-0.38l0.51,-0.385l0.516,-0.39l0.52,-0.395l0.526,-0.4l0.531,-0.405l0.537,-0.41l0.542,-0.416l0.547,-0.42l0.552,-0.425l0.558,-0.43l1.131,-0.876l1.153,-0.895l1.173,-0.916l1.194,-0.935l1.216,-0.956l1.236,-0.975l1.258,-0.996l1.279,-1.015l1.299,-1.036l1.321,-1.056l1.342,-1.075l1.363,-1.096l1.384,-1.115l1.404,-1.136l1.426,-1.155l1.447,-1.175l0.361,-0.295l0.36,-0.294l0.358,-0.294l0.357,-0.294l0.355,-0.294l0.354,-0.294l0.353,-0.293l0.352,-0.294l0.35,-0.294l0.349,-0.294l0.348,-0.294l0.346,-0.293l0.345,-0.294l0.343,-0.294l0.342,-0.293l0.341,-0.294l0.34,-0.294l0.338,-0.293l0.337,-0.294l0.336,-0.293l0.334,-0.294l0.333,-0.293l0.332,-0.293l0.33,-0.294l0.329,-0.293l0.327,-0.294l0.327,-0.293l0.325,-0.293l0.323,-0.293l0.323,-0.293l0.321,-0.294l0.319,-0.293l0.319,-0.293l0.317,-0.293l0.315,-0.293l0.315,-0.293l0.313,-0.293l0.311,-0.293l0.311,-0.293l0.309,-0.292l0.307,-0.293l0.307,-0.293l0.305,-0.293l0.304,-0.292l0.302,-0.293l0.301,-0.293l0.3,-0.292l0.298,-0.293l0.297,-0.292l0.296,-0.293l0.294,-0.292l0.293,-0.293l0.292,-0.292l0.291,-0.292l0.289,-0.293l0.287,-0.292l0.287,-0.292l0.285,-0.292l0.284,-0.293l0.282,-0.292l0.281,-0.292l0.28,-0.292l0.278,-0.292l0.278,-0.292l0.276,-0.292l0.274,-0.292l0.273,-0.291l0.272,-0.292l0.271,-0.292l0.269,-0.292l0.268,-0.291l0.266,-0.292l0.265,-0.292l0.264,-0.291l0.263,-0.292l0.261,-0.291l0.26,-0.292l0.258,-0.291l0.258,-0.292l0.256,-0.291l0.254,-0.291l0.253,-0.291l0.252,-0.292l0.251,-0.291l0.249,-0.291l0.248,-0.291l0.247,-0.291l0.245,-0.291l0.244,-0.291l0.243,-0.291l0.241,-0.291l0.24,-0.29l0.239,-0.291l0.237,-0.291l0.236,-0.291l0.235,-0.29l0.233,-0.291l0.233,-0.29l0.23,-0.291l0.23,-0.29l0.228,-0.291l0.227,-0.29l0.225,-0.29l0.224,-0.291l0.223,-0.29l0.221,-0.29l0.221,-0.29l0.218,-0.29l0.218,-0.29l0.216,-0.29l0.215,-0.29l0.214,-0.29l0.212,-0.29l0.211,-0.29l0.209,-0.289l0.209,-0.29l0.207,-0.29l0.205,-0.289l0.205,-0.29l0.203,-0.289l0.201,-0.29l0.201,-0.289l0.199,-0.289l0.197,-0.29l0.197,-0.289l0.195,-0.289l0.194,-0.289l0.192,-0.289l0.191,-0.289l0.19,-0.289l0.189,-0.289l0.187,-0.289l0.186,-0.289l0.184,-0.289l0.183,-0.289l0.182,-0.288l0.181,-0.289l0.179,-0.289l0.178,-0.288l0.177,-0.288l0.175,-0.289l0.174,-0.288l0.173,-0.289l0.171,-0.288l0.17,-0.288l0.169,-0.288l0.168,-0.288l0.166,-0.288l0.165,-0.288l0.163,-0.288l0.163,-0.288l0.16,-0.288l0.16,-0.288l0.158,-0.288l0.157,-0.287l0.156,-0.288l0.154,-0.287l0.153,-0.288l0.152,-0.287l0.151,-0.288l0.149,-0.287l0.148,-0.287l0.146,-0.288l0.145,-0.287l0.144,-0.287l0.143,-0.287l0.141,-0.287l0.14,-0.287l0.139,-0.287l0.137,-0.287l0.136,-0.287l0.135,-0.286l0.134,-0.287l0.132,-0.287l0.131,-0.286l0.129,-0.287l0.129,-0.286l0.127,-0.287l0.125,-0.286l0.125,-0.286l0.123,-0.287l0.121,-0.286l0.121,-0.286l0.119,-0.286l0.118,-0.286l0.117,-0.286l0.115,-0.286l0.114,-0.286l0.113,-0.286l0.111,-0.286l0.11,-0.285l0.109,-0.286l0.107,-0.286l0.107,-0.285l0.105,-0.286l0.103,-0.285l0.103,-0.286l0.101,-0.285l0.099,-0.285l0.099,-0.286l0.097,-0.285l0.096,-0.285l0.095,-0.285l0.093,-0.285l0.092,-0.285l0.091,-0.285l0.089,-0.285l0.088,-0.285l0.087,-0.285l0.086,-0.284l0.084,-0.285l0.083,-0.285l0.082,-0.284l0.08,-0.285l0.079,-0.284l0.078,-0.285l0.077,-0.284l0.075,-0.285l0.074,-0.284l0.073,-0.284l0.071,-0.285l0.071,-0.284l0.068,-0.284l0.068,-0.284l0.066,-0.284l0.065,-0.284l0.064,-0.284l0.063,-0.284l0.061,-0.284l0.06,-0.284l0.058,-0.284l0.058,-0.284l0.056,-0.283l0.055,-0.284l0.053,-0.284l0.053,-0.283l0.051,-0.284l0.049,-0.283l0.049,-0.284l0.047,-0.283l0.046,-0.284l0.044,-0.283l0.044,-0.283l0.042,-0.284l0.041,-0.283l0.039,-0.283l0.038,-0.284l0.037,-0.283l0.036,-0.283l0.035,-0.283l0.033,-0.283l0.032,-0.283l0.03,-0.283l0.03,-0.283l0.028,-0.283l0.027,-0.289l4.978,0.471Z" style="fill:#0e98d5;"/></g><g id="a21len5WSJ"><path d="M209.088,171.358c-2.56,-8.37 -26.96,-14.99 -73.21,-19.87c-46.24,-4.88 -80.05,-22.66 -101.43,-53.34" style="fill-opacity:0;fill-rule:nonzero;"/><path d="M36.745,97.07l0.247,0.35l0.248,0.349l0.249,0.348l0.25,0.347l0.252,0.345l0.252,0.345l0.254,0.343l0.254,0.342l0.256,0.341l0.257,0.34l0.258,0.338l0.259,0.337l0.26,0.337l0.261,0.335l0.263,0.334l0.263,0.332l0.265,0.332l0.266,0.33l0.267,0.329l0.267,0.328l0.269,0.327l0.271,0.326l0.271,0.325l0.272,0.323l0.274,0.322l0.274,0.321l0.276,0.32l0.277,0.319l0.278,0.317l0.279,0.317l0.28,0.315l0.281,0.314l0.282,0.313l0.284,0.312l0.284,0.31l0.286,0.31l0.286,0.308l0.288,0.307l0.289,0.306l0.29,0.305l0.292,0.304l0.292,0.302l0.293,0.301l0.295,0.301l0.295,0.299l0.297,0.298l0.298,0.296l0.299,0.296l0.3,0.294l0.301,0.293l0.303,0.292l0.303,0.291l0.304,0.29l0.306,0.289l0.307,0.287l0.308,0.287l0.309,0.285l0.31,0.284l0.311,0.283l0.312,0.281l0.314,0.281l0.314,0.279l0.316,0.278l0.317,0.278l0.318,0.275l0.319,0.275l0.32,0.274l0.321,0.272l0.322,0.272l0.324,0.27l0.324,0.269l0.326,0.268l0.327,0.267l0.328,0.265l0.329,0.265l0.33,0.263l0.332,0.262l0.332,0.261l0.334,0.26l0.334,0.259l0.336,0.257l0.337,0.256l0.338,0.256l0.339,0.254l0.341,0.253l0.341,0.252l0.343,0.25l0.343,0.25l0.345,0.248l0.346,0.247l0.347,0.246l0.348,0.245l0.35,0.244l0.35,0.243l0.352,0.241l0.353,0.241l0.353,0.239l0.355,0.238l0.356,0.237l0.358,0.236l0.358,0.234l0.359,0.234l0.361,0.232l0.362,0.231l0.363,0.23l0.364,0.229l0.365,0.228l0.366,0.226l0.367,0.226l0.369,0.224l0.37,0.223l0.371,0.222l0.371,0.221l0.373,0.22l0.375,0.218l0.375,0.218l0.377,0.216l0.377,0.215l0.379,0.214l0.38,0.213l0.381,0.212l0.382,0.21l0.383,0.21l0.385,0.208l0.385,0.207l0.387,0.206l0.388,0.205l0.389,0.204l0.39,0.202l0.391,0.202l0.393,0.2l0.393,0.199l0.395,0.198l0.396,0.197l0.397,0.196l0.398,0.194l0.399,0.193l0.401,0.193l0.401,0.191l0.403,0.19l0.404,0.189l0.405,0.187l0.406,0.187l0.407,0.185l0.408,0.184l0.41,0.183l0.411,0.182l0.412,0.181l0.413,0.18l0.414,0.178l0.415,0.177l0.416,0.177l0.418,0.175l0.419,0.174l0.42,0.172l0.421,0.172l0.422,0.17l0.423,0.17l0.425,0.168l0.425,0.167l0.427,0.166l0.428,0.164l0.429,0.164l0.43,0.162l0.432,0.162l0.432,0.16l0.434,0.159l0.435,0.157l0.436,0.157l0.437,0.156l0.438,0.154l0.439,0.153l0.441,0.152l0.442,0.151l0.443,0.15l0.444,0.149l0.445,0.147l0.446,0.146l0.448,0.145l0.448,0.145l0.45,0.142l0.451,0.142l0.452,0.141l0.453,0.139l0.455,0.138l0.455,0.137l0.457,0.136l0.458,0.135l0.459,0.134l0.46,0.132l0.461,0.132l0.463,0.13l0.463,0.129l0.465,0.128l0.466,0.126l0.467,0.126l0.469,0.124l0.469,0.124l0.471,0.122l0.471,0.121l0.473,0.119l0.474,0.119l0.475,0.117l0.477,0.117l0.477,0.115l0.479,0.114l0.48,0.113l0.481,0.111l0.482,0.111l0.483,0.109l0.485,0.109l0.485,0.107l0.487,0.106l0.488,0.104l0.489,0.104l0.49,0.102l0.492,0.102l0.492,0.1l0.494,0.099l0.495,0.098l0.496,0.096l0.497,0.096l0.498,0.094l0.5,0.093l0.5,0.092l0.502,0.091l0.503,0.09l0.504,0.088l0.505,0.088l0.507,0.086l0.507,0.085l0.509,0.084l0.51,0.083l0.511,0.081l0.512,0.081l0.514,0.079l0.514,0.078l0.516,0.077l0.517,0.076l0.518,0.074l0.519,0.074l0.52,0.072l0.522,0.071l0.523,0.07l0.523,0.069l0.525,0.067l0.526,0.067l0.528,0.065l0.528,0.064l0.53,0.063l0.531,0.062l0.531,0.061l0.533,0.059l0.535,0.058l0.537,0.058l1.081,0.115l1.076,0.115l1.067,0.117l1.06,0.117l1.051,0.117l1.044,0.119l1.036,0.119l1.027,0.119l1.02,0.12l1.012,0.121l1.004,0.122l0.996,0.122l0.988,0.123l0.98,0.123l0.972,0.124l0.964,0.125l0.957,0.126l0.948,0.126l0.94,0.127l0.933,0.127l0.925,0.128l0.916,0.129l0.909,0.129l0.901,0.13l0.893,0.131l0.884,0.131l0.878,0.132l0.869,0.133l0.861,0.134l0.853,0.134l0.846,0.134l0.837,0.136l0.83,0.136l0.822,0.136l0.813,0.138l0.806,0.138l0.798,0.139l0.791,0.139l0.782,0.14l0.774,0.141l0.767,0.141l0.759,0.142l0.75,0.143l0.743,0.144l0.735,0.144l0.728,0.145l0.719,0.145l0.712,0.146l0.703,0.147l0.696,0.148l0.688,0.148l0.681,0.149l0.672,0.15l0.665,0.151l0.656,0.151l0.649,0.152l0.642,0.152l0.633,0.154l0.626,0.154l0.617,0.155l0.611,0.155l0.602,0.156l0.595,0.157l0.586,0.158l0.579,0.159l0.572,0.159l0.564,0.16l0.555,0.161l0.549,0.162l0.54,0.163l0.533,0.163l0.524,0.164l0.261,0.082l0.258,0.083l0.256,0.083l0.254,0.083l0.252,0.083l0.251,0.084l0.248,0.083l0.246,0.084l0.245,0.084l0.242,0.085l0.241,0.084l0.239,0.085l0.237,0.085l0.235,0.085l0.233,0.086l0.231,0.086l0.23,0.086l0.227,0.086l0.226,0.086l0.224,0.087l0.222,0.087l0.22,0.087l0.218,0.088l0.216,0.087l0.215,0.088l0.212,0.088l0.211,0.089l0.209,0.089l0.207,0.089l0.205,0.089l0.203,0.09l0.202,0.09l0.199,0.09l0.198,0.09l0.196,0.091l0.194,0.091l0.193,0.091l0.19,0.092l0.189,0.092l0.186,0.092l0.186,0.093l0.183,0.093l0.181,0.093l0.179,0.094l0.178,0.094l0.176,0.094l0.174,0.095l0.173,0.095l0.17,0.096l0.169,0.096l0.167,0.096l0.165,0.097l0.163,0.097l0.162,0.097l0.16,0.098l0.157,0.099l0.157,0.098l0.154,0.1l0.153,0.1l0.151,0.1l0.149,0.101l0.147,0.101l0.146,0.102l0.144,0.102l0.142,0.103l0.14,0.103l0.139,0.104l0.136,0.105l0.135,0.105l0.134,0.106l0.131,0.106l0.13,0.107l0.128,0.108l0.126,0.108l0.124,0.109l0.123,0.11l0.121,0.111l0.119,0.111l0.117,0.112l0.115,0.113l0.114,0.113l0.111,0.115l0.11,0.115l0.108,0.116l0.106,0.117l0.104,0.118l0.103,0.118l0.1,0.12l0.098,0.12l0.097,0.122l0.094,0.123l0.093,0.123l0.09,0.125l0.088,0.125l0.087,0.126l0.084,0.128l0.082,0.129l0.08,0.129l0.077,0.131l0.076,0.131l0.073,0.133l0.071,0.134l0.068,0.134l0.066,0.136l0.064,0.137l0.061,0.138l0.058,0.139l0.056,0.139l0.053,0.141l0.051,0.142l0.048,0.142l0.039,0.121l-4.768,1.507l-0.024,-0.075l-0.018,-0.053l-0.019,-0.054l-0.021,-0.054l-0.022,-0.055l-0.023,-0.056l-0.025,-0.056l-0.026,-0.057l-0.028,-0.058l-0.03,-0.058l-0.031,-0.059l-0.033,-0.06l-0.035,-0.06l-0.036,-0.062l-0.039,-0.062l-0.039,-0.062l-0.042,-0.063l-0.044,-0.064l-0.046,-0.066l-0.047,-0.065l-0.05,-0.066l-0.051,-0.067l-0.054,-0.067l-0.055,-0.068l-0.058,-0.069l-0.06,-0.069l-0.061,-0.07l-0.064,-0.071l-0.066,-0.071l-0.068,-0.071l-0.071,-0.072l-0.072,-0.073l-0.075,-0.073l-0.076,-0.073l-0.08,-0.074l-0.081,-0.074l-0.083,-0.075l-0.086,-0.075l-0.088,-0.075l-0.09,-0.076l-0.092,-0.077l-0.095,-0.076l-0.096,-0.077l-0.099,-0.077l-0.101,-0.077l-0.104,-0.078l-0.105,-0.078l-0.108,-0.078l-0.11,-0.078l-0.113,-0.079l-0.115,-0.078l-0.116,-0.079l-0.119,-0.079l-0.121,-0.08l-0.124,-0.079l-0.126,-0.079l-0.128,-0.08l-0.13,-0.08l-0.132,-0.08l-0.135,-0.08l-0.137,-0.08l-0.139,-0.08l-0.141,-0.08l-0.143,-0.081l-0.146,-0.08l-0.148,-0.081l-0.15,-0.08l-0.152,-0.081l-0.154,-0.08l-0.157,-0.081l-0.159,-0.081l-0.161,-0.08l-0.163,-0.081l-0.165,-0.08l-0.168,-0.081l-0.17,-0.081l-0.171,-0.08l-0.174,-0.081l-0.176,-0.08l-0.179,-0.081l-0.18,-0.08l-0.183,-0.081l-0.185,-0.081l-0.187,-0.08l-0.189,-0.08l-0.191,-0.081l-0.193,-0.08l-0.196,-0.08l-0.197,-0.08l-0.2,-0.08l-0.202,-0.08l-0.204,-0.08l-0.206,-0.08l-0.209,-0.08l-0.21,-0.079l-0.213,-0.08l-0.214,-0.08l-0.217,-0.079l-0.219,-0.08l-0.221,-0.079l-0.223,-0.079l-0.225,-0.079l-0.227,-0.079l-0.23,-0.079l-0.231,-0.079l-0.234,-0.079l-0.236,-0.078l-0.237,-0.079l-0.24,-0.078l-0.242,-0.078l-0.244,-0.079l-0.245,-0.077l-0.5,-0.157l-0.507,-0.155l-0.515,-0.155l-0.524,-0.154l-0.532,-0.154l-0.54,-0.154l-0.549,-0.153l-0.556,-0.152l-0.565,-0.152l-0.574,-0.152l-0.581,-0.151l-0.59,-0.15l-0.598,-0.15l-0.606,-0.149l-0.615,-0.149l-0.622,-0.148l-0.631,-0.148l-0.639,-0.147l-0.648,-0.146l-0.655,-0.146l-0.664,-0.146l-0.671,-0.145l-0.68,-0.144l-0.689,-0.144l-0.696,-0.143l-0.704,-0.142l-0.713,-0.142l-0.721,-0.142l-0.729,-0.14l-0.737,-0.14l-0.745,-0.14l-0.753,-0.139l-0.762,-0.138l-0.769,-0.138l-0.778,-0.137l-0.786,-0.137l-0.794,-0.136l-0.802,-0.135l-0.81,-0.135l-0.818,-0.134l-0.827,-0.134l-0.834,-0.133l-0.842,-0.132l-0.851,-0.132l-0.859,-0.131l-0.867,-0.13l-0.875,-0.13l-0.883,-0.13l-0.891,-0.128l-0.899,-0.128l-0.907,-0.128l-0.916,-0.127l-0.923,-0.126l-0.932,-0.125l-0.939,-0.125l-0.948,-0.125l-0.955,-0.123l-0.964,-0.123l-0.972,-0.123l-0.98,-0.122l-0.988,-0.121l-0.996,-0.121l-1.004,-0.119l-1.012,-0.12l-1.02,-0.119l-1.029,-0.118l-1.036,-0.117l-1.044,-0.117l-1.053,-0.116l-1.06,-0.116l-1.069,-0.115l-1.079,-0.114l-0.545,-0.058l-0.546,-0.06l-0.545,-0.061l-0.544,-0.062l-0.543,-0.063l-0.541,-0.064l-0.541,-0.066l-0.539,-0.067l-0.538,-0.068l-0.538,-0.069l-0.536,-0.07l-0.534,-0.072l-0.534,-0.073l-0.533,-0.074l-0.532,-0.075l-0.53,-0.076l-0.529,-0.078l-0.529,-0.079l-0.527,-0.08l-0.526,-0.081l-0.525,-0.082l-0.523,-0.084l-0.523,-0.085l-0.521,-0.086l-0.521,-0.087l-0.519,-0.088l-0.518,-0.09l-0.517,-0.091l-0.516,-0.092l-0.515,-0.093l-0.514,-0.094l-0.512,-0.096l-0.512,-0.097l-0.51,-0.098l-0.509,-0.099l-0.508,-0.1l-0.507,-0.102l-0.506,-0.103l-0.505,-0.104l-0.504,-0.105l-0.502,-0.107l-0.501,-0.107l-0.501,-0.109l-0.499,-0.11l-0.498,-0.111l-0.497,-0.113l-0.496,-0.114l-0.494,-0.114l-0.494,-0.116l-0.492,-0.118l-0.492,-0.118l-0.49,-0.12l-0.489,-0.121l-0.488,-0.122l-0.486,-0.123l-0.486,-0.125l-0.485,-0.126l-0.483,-0.126l-0.483,-0.129l-0.481,-0.129l-0.48,-0.131l-0.479,-0.131l-0.478,-0.133l-0.477,-0.134l-0.475,-0.136l-0.475,-0.137l-0.473,-0.137l-0.472,-0.139l-0.471,-0.141l-0.47,-0.141l-0.469,-0.143l-0.468,-0.144l-0.467,-0.145l-0.465,-0.146l-0.465,-0.147l-0.463,-0.149l-0.462,-0.15l-0.461,-0.151l-0.46,-0.152l-0.459,-0.154l-0.457,-0.155l-0.457,-0.156l-0.455,-0.157l-0.455,-0.158l-0.453,-0.16l-0.452,-0.161l-0.451,-0.162l-0.45,-0.163l-0.448,-0.164l-0.448,-0.166l-0.446,-0.167l-0.445,-0.168l-0.445,-0.169l-0.443,-0.171l-0.442,-0.172l-0.44,-0.173l-0.44,-0.174l-0.438,-0.175l-0.438,-0.177l-0.436,-0.178l-0.435,-0.179l-0.434,-0.18l-0.433,-0.181l-0.432,-0.183l-0.431,-0.184l-0.429,-0.185l-0.428,-0.186l-0.428,-0.188l-0.426,-0.189l-0.425,-0.189l-0.423,-0.192l-0.423,-0.192l-0.422,-0.194l-0.42,-0.194l-0.419,-0.196l-0.419,-0.198l-0.417,-0.198l-0.416,-0.2l-0.414,-0.201l-0.414,-0.202l-0.413,-0.203l-0.411,-0.205l-0.41,-0.205l-0.409,-0.207l-0.408,-0.209l-0.407,-0.209l-0.406,-0.211l-0.404,-0.212l-0.404,-0.213l-0.402,-0.214l-0.401,-0.215l-0.4,-0.217l-0.399,-0.218l-0.398,-0.219l-0.396,-0.221l-0.396,-0.221l-0.394,-0.223l-0.393,-0.224l-0.392,-0.225l-0.391,-0.227l-0.39,-0.227l-0.389,-0.229l-0.387,-0.23l-0.387,-0.232l-0.385,-0.232l-0.384,-0.234l-0.383,-0.235l-0.382,-0.236l-0.38,-0.237l-0.38,-0.239l-0.378,-0.24l-0.377,-0.241l-0.376,-0.242l-0.375,-0.244l-0.374,-0.244l-0.372,-0.246l-0.372,-0.247l-0.37,-0.249l-0.369,-0.249l-0.368,-0.251l-0.367,-0.252l-0.366,-0.253l-0.365,-0.255l-0.363,-0.255l-0.362,-0.257l-0.362,-0.258l-0.359,-0.26l-0.359,-0.26l-0.358,-0.262l-0.357,-0.263l-0.355,-0.264l-0.354,-0.265l-0.353,-0.267l-0.352,-0.268l-0.351,-0.269l-0.35,-0.27l-0.348,-0.271l-0.347,-0.273l-0.346,-0.274l-0.345,-0.275l-0.344,-0.276l-0.343,-0.278l-0.341,-0.278l-0.341,-0.28l-0.339,-0.282l-0.338,-0.282l-0.337,-0.283l-0.336,-0.285l-0.334,-0.286l-0.334,-0.287l-0.332,-0.289l-0.331,-0.289l-0.33,-0.291l-0.329,-0.292l-0.328,-0.294l-0.326,-0.294l-0.325,-0.296l-0.324,-0.297l-0.323,-0.298l-0.322,-0.299l-0.321,-0.3l-0.319,-0.302l-0.319,-0.303l-0.317,-0.304l-0.316,-0.306l-0.315,-0.306l-0.313,-0.308l-0.313,-0.309l-0.311,-0.31l-0.311,-0.311l-0.309,-0.313l-0.307,-0.314l-0.307,-0.315l-0.306,-0.316l-0.304,-0.317l-0.303,-0.319l-0.302,-0.32l-0.301,-0.321l-0.3,-0.322l-0.298,-0.323l-0.298,-0.325l-0.296,-0.326l-0.295,-0.327l-0.294,-0.328l-0.293,-0.329l-0.291,-0.331l-0.29,-0.332l-0.29,-0.333l-0.288,-0.334l-0.286,-0.335l-0.286,-0.337l-0.285,-0.338l-0.283,-0.339l-0.282,-0.34l-0.281,-0.341l-0.28,-0.343l-0.279,-0.344l-0.277,-0.345l-0.276,-0.346l-0.275,-0.347l-0.274,-0.349l-0.273,-0.35l-0.272,-0.351l-0.27,-0.352l-0.27,-0.353l-0.268,-0.355l-0.267,-0.356l-0.265,-0.356l-0.265,-0.359l-0.263,-0.359l-0.263,-0.36l-0.261,-0.362l-0.26,-0.363l-0.258,-0.364l-0.258,-0.365l-0.254,-0.363l4.097,-2.866l0.249,0.355Z" style="fill:#0e98d5;"/></g></g></svg>